<?xml version="1.0" encoding="UTF-8"?>
<!DOCTYPE svg PUBLIC "-//W3C//DTD SVG 1.1//EN" "http://www.w3.org/Graphics/SVG/1.1/DTD/svg11.dtd">
<svg width="156mm" height="90mm" viewBox="0 0 15600 9000" version="1.1" xmlns="http://www.w3.org/2000/svg" stroke-width="28.222" stroke-linejoin="round" xml:space="preserve">
 <path fill="rgb(255,255,255)" stroke="none" d="M 7815,9003 L 0,9003 0,-1 15630,-1 15630,9003 7815,9003 Z"/>
 <path fill="none" stroke="rgb(179,179,179)" stroke-linejoin="round" d="M 6868,7142 L 2448,7142 2448,391 11287,391 11287,7142 6868,7142 Z"/>
 <path fill="none" stroke="rgb(179,179,179)" stroke-linejoin="round" d="M 2448,389 L 2448,7141"/>
 <path fill="none" stroke="rgb(179,179,179)" stroke-linejoin="round" d="M 3553,389 L 3553,7141"/>
 <path fill="none" stroke="rgb(179,179,179)" stroke-linejoin="round" d="M 4658,389 L 4658,7141"/>
 <path fill="none" stroke="rgb(179,179,179)" stroke-linejoin="round" d="M 5763,389 L 5763,7141"/>
 <path fill="none" stroke="rgb(179,179,179)" stroke-linejoin="round" d="M 6868,389 L 6868,7141"/>
 <path fill="none" stroke="rgb(179,179,179)" stroke-linejoin="round" d="M 7972,389 L 7972,7141"/>
 <path fill="none" stroke="rgb(179,179,179)" stroke-linejoin="round" d="M 9077,389 L 9077,7141"/>
 <path fill="none" stroke="rgb(179,179,179)" stroke-linejoin="round" d="M 10182,389 L 10182,7141"/>
 <path fill="none" stroke="rgb(179,179,179)" stroke-linejoin="round" d="M 11287,389 L 11287,7141"/>
 <path fill="none" stroke="rgb(179,179,179)" stroke-linejoin="round" d="M 11287,7141 L 2448,7141"/>
 <path fill="none" stroke="rgb(179,179,179)" stroke-linejoin="round" d="M 11287,6390 L 2448,6390"/>
 <path fill="none" stroke="rgb(179,179,179)" stroke-linejoin="round" d="M 11287,5640 L 2448,5640"/>
 <path fill="none" stroke="rgb(179,179,179)" stroke-linejoin="round" d="M 11287,4890 L 2448,4890"/>
 <path fill="none" stroke="rgb(179,179,179)" stroke-linejoin="round" d="M 11287,4141 L 2448,4141"/>
 <path fill="none" stroke="rgb(179,179,179)" stroke-linejoin="round" d="M 11287,3390 L 2448,3390"/>
 <path fill="none" stroke="rgb(179,179,179)" stroke-linejoin="round" d="M 11287,2640 L 2448,2640"/>
 <path fill="none" stroke="rgb(179,179,179)" stroke-linejoin="round" d="M 11287,1890 L 2448,1890"/>
 <path fill="none" stroke="rgb(179,179,179)" stroke-linejoin="round" d="M 11287,1140 L 2448,1140"/>
 <path fill="none" stroke="rgb(179,179,179)" stroke-linejoin="round" d="M 11287,389 L 2448,389"/>
 <path fill="none" stroke="rgb(179,179,179)" stroke-linejoin="round" d="M 2448,7291 L 2448,7141"/>
 <path fill="none" stroke="rgb(179,179,179)" stroke-linejoin="round" d="M 3553,7291 L 3553,7141"/>
 <path fill="none" stroke="rgb(179,179,179)" stroke-linejoin="round" d="M 4658,7291 L 4658,7141"/>
 <path fill="none" stroke="rgb(179,179,179)" stroke-linejoin="round" d="M 5763,7291 L 5763,7141"/>
 <path fill="none" stroke="rgb(179,179,179)" stroke-linejoin="round" d="M 6868,7291 L 6868,7141"/>
 <path fill="none" stroke="rgb(179,179,179)" stroke-linejoin="round" d="M 7972,7291 L 7972,7141"/>
 <path fill="none" stroke="rgb(179,179,179)" stroke-linejoin="round" d="M 9077,7291 L 9077,7141"/>
 <path fill="none" stroke="rgb(179,179,179)" stroke-linejoin="round" d="M 10182,7291 L 10182,7141"/>
 <path fill="none" stroke="rgb(179,179,179)" stroke-linejoin="round" d="M 11287,7291 L 11287,7141"/>
 <path fill="none" stroke="rgb(179,179,179)" stroke-linejoin="round" d="M 2448,7141 L 11287,7141"/>
 <path fill="none" stroke="rgb(179,179,179)" stroke-linejoin="round" d="M 2298,7141 L 2448,7141"/>
 <path fill="none" stroke="rgb(179,179,179)" stroke-linejoin="round" d="M 2298,6390 L 2448,6390"/>
 <path fill="none" stroke="rgb(179,179,179)" stroke-linejoin="round" d="M 2298,5640 L 2448,5640"/>
 <path fill="none" stroke="rgb(179,179,179)" stroke-linejoin="round" d="M 2298,4890 L 2448,4890"/>
 <path fill="none" stroke="rgb(179,179,179)" stroke-linejoin="round" d="M 2298,4141 L 2448,4141"/>
 <path fill="none" stroke="rgb(179,179,179)" stroke-linejoin="round" d="M 2298,3390 L 2448,3390"/>
 <path fill="none" stroke="rgb(179,179,179)" stroke-linejoin="round" d="M 2298,2640 L 2448,2640"/>
 <path fill="none" stroke="rgb(179,179,179)" stroke-linejoin="round" d="M 2298,1890 L 2448,1890"/>
 <path fill="none" stroke="rgb(179,179,179)" stroke-linejoin="round" d="M 2298,1140 L 2448,1140"/>
 <path fill="none" stroke="rgb(179,179,179)" stroke-linejoin="round" d="M 2298,389 L 2448,389"/>
 <path fill="none" stroke="rgb(179,179,179)" stroke-linejoin="round" d="M 2448,7141 L 2448,389"/>
 <path fill="rgb(0,69,134)" stroke="none" d="M 9485,1233 L 9485,1363 9355,1363 9355,1385 9485,1385 9485,1515 9507,1515 9507,1385 9637,1385 9637,1363 9507,1363 9507,1233 9485,1233 Z"/>
 <path fill="none" stroke="rgb(0,69,134)" stroke-linejoin="round" d="M 9485,1233 L 9485,1363 9355,1363 9355,1385 9485,1385 9485,1515 9507,1515 9507,1385 9637,1385 9637,1363 9507,1363 9507,1233 9485,1233 Z"/>
 <path fill="rgb(0,69,134)" stroke="none" d="M 4934,4505 L 4934,4635 4804,4635 4804,4657 4934,4657 4934,4787 4956,4787 4956,4657 5086,4657 5086,4635 4956,4635 4956,4505 4934,4505 Z"/>
 <path fill="none" stroke="rgb(0,69,134)" stroke-linejoin="round" d="M 4934,4505 L 4934,4635 4804,4635 4804,4657 4934,4657 4934,4787 4956,4787 4956,4657 5086,4657 5086,4635 4956,4635 4956,4505 4934,4505 Z"/>
 <path fill="rgb(0,69,134)" stroke="none" d="M 5774,3942 L 5774,4072 5644,4072 5644,4094 5774,4094 5774,4224 5796,4224 5796,4094 5926,4094 5926,4072 5796,4072 5796,3942 5774,3942 Z"/>
 <path fill="none" stroke="rgb(0,69,134)" stroke-linejoin="round" d="M 5774,3942 L 5774,4072 5644,4072 5644,4094 5774,4094 5774,4224 5796,4224 5796,4094 5926,4094 5926,4072 5796,4072 5796,3942 5774,3942 Z"/>
 <path fill="rgb(0,69,134)" stroke="none" d="M 6658,3174 L 6658,3304 6528,3304 6528,3326 6658,3326 6658,3456 6680,3456 6680,3326 6810,3326 6810,3304 6680,3304 6680,3174 6658,3174 Z"/>
 <path fill="none" stroke="rgb(0,69,134)" stroke-linejoin="round" d="M 6658,3174 L 6658,3304 6528,3304 6528,3326 6658,3326 6658,3456 6680,3456 6680,3326 6810,3326 6810,3304 6680,3304 6680,3174 6658,3174 Z"/>
 <path fill="rgb(0,69,134)" stroke="none" d="M 6658,3283 L 6658,3413 6528,3413 6528,3435 6658,3435 6658,3565 6680,3565 6680,3435 6810,3435 6810,3413 6680,3413 6680,3283 6658,3283 Z"/>
 <path fill="none" stroke="rgb(0,69,134)" stroke-linejoin="round" d="M 6658,3283 L 6658,3413 6528,3413 6528,3435 6658,3435 6658,3565 6680,3565 6680,3435 6810,3435 6810,3413 6680,3413 6680,3283 6658,3283 Z"/>
 <path fill="rgb(0,69,134)" stroke="none" d="M 7542,2741 L 7542,2871 7412,2871 7412,2893 7542,2893 7542,3023 7564,3023 7564,2893 7694,2893 7694,2871 7564,2871 7564,2741 7542,2741 Z"/>
 <path fill="none" stroke="rgb(0,69,134)" stroke-linejoin="round" d="M 7542,2741 L 7542,2871 7412,2871 7412,2893 7542,2893 7542,3023 7564,3023 7564,2893 7694,2893 7694,2871 7564,2871 7564,2741 7542,2741 Z"/>
 <path fill="rgb(0,69,134)" stroke="none" d="M 7542,2714 L 7542,2844 7412,2844 7412,2866 7542,2866 7542,2996 7564,2996 7564,2866 7694,2866 7694,2844 7564,2844 7564,2714 7542,2714 Z"/>
 <path fill="none" stroke="rgb(0,69,134)" stroke-linejoin="round" d="M 7542,2714 L 7542,2844 7412,2844 7412,2866 7542,2866 7542,2996 7564,2996 7564,2866 7694,2866 7694,2844 7564,2844 7564,2714 7542,2714 Z"/>
 <path fill="rgb(0,69,134)" stroke="none" d="M 8425,2147 L 8425,2277 8295,2277 8295,2299 8425,2299 8425,2429 8447,2429 8447,2299 8577,2299 8577,2277 8447,2277 8447,2147 8425,2147 Z"/>
 <path fill="none" stroke="rgb(0,69,134)" stroke-linejoin="round" d="M 8425,2147 L 8425,2277 8295,2277 8295,2299 8425,2299 8425,2429 8447,2429 8447,2299 8577,2299 8577,2277 8447,2277 8447,2147 8425,2147 Z"/>
 <path fill="rgb(0,69,134)" stroke="none" d="M 9220,1518 L 9220,1648 9090,1648 9090,1670 9220,1670 9220,1800 9242,1800 9242,1670 9372,1670 9372,1648 9242,1648 9242,1518 9220,1518 Z"/>
 <path fill="none" stroke="rgb(0,69,134)" stroke-linejoin="round" d="M 9220,1518 L 9220,1648 9090,1648 9090,1670 9220,1670 9220,1800 9242,1800 9242,1670 9372,1670 9372,1648 9242,1648 9242,1518 9220,1518 Z"/>
 <path fill="rgb(0,69,134)" stroke="none" d="M 10038,1102 L 10038,1232 9908,1232 9908,1254 10038,1254 10038,1384 10060,1384 10060,1254 10190,1254 10190,1232 10060,1232 10060,1102 10038,1102 Z"/>
 <path fill="none" stroke="rgb(0,69,134)" stroke-linejoin="round" d="M 10038,1102 L 10038,1232 9908,1232 9908,1254 10038,1254 10038,1384 10060,1384 10060,1254 10190,1254 10190,1232 10060,1232 10060,1102 10038,1102 Z"/>
 <path fill="rgb(0,69,134)" stroke="none" d="M 3674,5351 L 3674,5481 3544,5481 3544,5503 3674,5503 3674,5633 3696,5633 3696,5503 3826,5503 3826,5481 3696,5481 3696,5351 3674,5351 Z"/>
 <path fill="none" stroke="rgb(0,69,134)" stroke-linejoin="round" d="M 3674,5351 L 3674,5481 3544,5481 3544,5503 3674,5503 3674,5633 3696,5633 3696,5503 3826,5503 3826,5481 3696,5481 3696,5351 3674,5351 Z"/>
 <path fill="rgb(0,69,134)" stroke="none" d="M 4558,4706 L 4558,4836 4428,4836 4428,4858 4558,4858 4558,4988 4580,4988 4580,4858 4710,4858 4710,4836 4580,4836 4580,4706 4558,4706 Z"/>
 <path fill="none" stroke="rgb(0,69,134)" stroke-linejoin="round" d="M 4558,4706 L 4558,4836 4428,4836 4428,4858 4558,4858 4558,4988 4580,4988 4580,4858 4710,4858 4710,4836 4580,4836 4580,4706 4558,4706 Z"/>
 <path fill="rgb(0,69,134)" stroke="none" d="M 5641,4002 L 5641,4132 5511,4132 5511,4154 5641,4154 5641,4284 5663,4284 5663,4154 5793,4154 5793,4132 5663,4132 5663,4002 5641,4002 Z"/>
 <path fill="none" stroke="rgb(0,69,134)" stroke-linejoin="round" d="M 5641,4002 L 5641,4132 5511,4132 5511,4154 5641,4154 5641,4284 5663,4284 5663,4154 5793,4154 5793,4132 5663,4132 5663,4002 5641,4002 Z"/>
 <path fill="rgb(0,69,134)" stroke="none" d="M 6635,3361 L 6635,3491 6506,3491 6506,3513 6635,3513 6635,3643 6658,3643 6658,3513 6788,3513 6788,3491 6658,3491 6658,3361 6635,3361 Z"/>
 <path fill="none" stroke="rgb(0,69,134)" stroke-linejoin="round" d="M 6635,3361 L 6635,3491 6506,3491 6506,3513 6635,3513 6635,3643 6658,3643 6658,3513 6788,3513 6788,3491 6658,3491 6658,3361 6635,3361 Z"/>
 <path fill="rgb(0,69,134)" stroke="none" d="M 7497,2714 L 7497,2844 7367,2844 7367,2866 7497,2866 7497,2996 7519,2996 7519,2866 7649,2866 7649,2844 7519,2844 7519,2714 7497,2714 Z"/>
 <path fill="none" stroke="rgb(0,69,134)" stroke-linejoin="round" d="M 7497,2714 L 7497,2844 7367,2844 7367,2866 7497,2866 7497,2996 7519,2996 7519,2866 7649,2866 7649,2844 7519,2844 7519,2714 7497,2714 Z"/>
 <path fill="none" stroke="rgb(0,69,134)" stroke-linejoin="round" d="M 3685,5517 L 10049,1107"/>
 <text class="TextShape"><tspan class="TextParagraph" font-family="Arial, sans-serif" font-size="353px" font-weight="400"><tspan class="TextPosition" x="2117" y="7735"><tspan fill="rgb(0,0,0)" stroke="none">0,05</tspan></tspan></tspan></text>
 <text class="TextShape"><tspan class="TextParagraph" font-family="Arial, sans-serif" font-size="353px" font-weight="400"><tspan class="TextPosition" x="3315" y="7735"><tspan fill="rgb(0,0,0)" stroke="none">0,1</tspan></tspan></tspan></text>
 <text class="TextShape"><tspan class="TextParagraph" font-family="Arial, sans-serif" font-size="353px" font-weight="400"><tspan class="TextPosition" x="4327" y="7735"><tspan fill="rgb(0,0,0)" stroke="none">0,15</tspan></tspan></tspan></text>
 <text class="TextShape"><tspan class="TextParagraph" font-family="Arial, sans-serif" font-size="353px" font-weight="400"><tspan class="TextPosition" x="5525" y="7735"><tspan fill="rgb(0,0,0)" stroke="none">0,2</tspan></tspan></tspan></text>
 <text class="TextShape"><tspan class="TextParagraph" font-family="Arial, sans-serif" font-size="353px" font-weight="400"><tspan class="TextPosition" x="6537" y="7735"><tspan fill="rgb(0,0,0)" stroke="none">0,25</tspan></tspan></tspan></text>
 <text class="TextShape"><tspan class="TextParagraph" font-family="Arial, sans-serif" font-size="353px" font-weight="400"><tspan class="TextPosition" x="7735" y="7735"><tspan fill="rgb(0,0,0)" stroke="none">0,3</tspan></tspan></tspan></text>
 <text class="TextShape"><tspan class="TextParagraph" font-family="Arial, sans-serif" font-size="353px" font-weight="400"><tspan class="TextPosition" x="8747" y="7735"><tspan fill="rgb(0,0,0)" stroke="none">0,35</tspan></tspan></tspan></text>
 <text class="TextShape"><tspan class="TextParagraph" font-family="Arial, sans-serif" font-size="353px" font-weight="400"><tspan class="TextPosition" x="9945" y="7735"><tspan fill="rgb(0,0,0)" stroke="none">0,4</tspan></tspan></tspan></text>
 <text class="TextShape"><tspan class="TextParagraph" font-family="Arial, sans-serif" font-size="353px" font-weight="400"><tspan class="TextPosition" x="10957" y="7735"><tspan fill="rgb(0,0,0)" stroke="none">0,45</tspan></tspan></tspan></text>
 <text class="TextShape"><tspan class="TextParagraph" font-family="Arial, sans-serif" font-size="353px" font-weight="400"><tspan class="TextPosition" x="1351" y="7275"><tspan fill="rgb(0,0,0)" stroke="none">0,000</tspan></tspan></tspan></text>
 <text class="TextShape"><tspan class="TextParagraph" font-family="Arial, sans-serif" font-size="353px" font-weight="400"><tspan class="TextPosition" x="1351" y="6524"><tspan fill="rgb(0,0,0)" stroke="none">0,200</tspan></tspan></tspan></text>
 <text class="TextShape"><tspan class="TextParagraph" font-family="Arial, sans-serif" font-size="353px" font-weight="400"><tspan class="TextPosition" x="1351" y="5774"><tspan fill="rgb(0,0,0)" stroke="none">0,400</tspan></tspan></tspan></text>
 <text class="TextShape"><tspan class="TextParagraph" font-family="Arial, sans-serif" font-size="353px" font-weight="400"><tspan class="TextPosition" x="1351" y="5024"><tspan fill="rgb(0,0,0)" stroke="none">0,600</tspan></tspan></tspan></text>
 <text class="TextShape"><tspan class="TextParagraph" font-family="Arial, sans-serif" font-size="353px" font-weight="400"><tspan class="TextPosition" x="1351" y="4274"><tspan fill="rgb(0,0,0)" stroke="none">0,800</tspan></tspan></tspan></text>
 <text class="TextShape"><tspan class="TextParagraph" font-family="Arial, sans-serif" font-size="353px" font-weight="400"><tspan class="TextPosition" x="1351" y="3523"><tspan fill="rgb(0,0,0)" stroke="none">1,000</tspan></tspan></tspan></text>
 <text class="TextShape"><tspan class="TextParagraph" font-family="Arial, sans-serif" font-size="353px" font-weight="400"><tspan class="TextPosition" x="1351" y="2773"><tspan fill="rgb(0,0,0)" stroke="none">1,200</tspan></tspan></tspan></text>
 <text class="TextShape"><tspan class="TextParagraph" font-family="Arial, sans-serif" font-size="353px" font-weight="400"><tspan class="TextPosition" x="1351" y="2023"><tspan fill="rgb(0,0,0)" stroke="none">1,400</tspan></tspan></tspan></text>
 <text class="TextShape"><tspan class="TextParagraph" font-family="Arial, sans-serif" font-size="353px" font-weight="400"><tspan class="TextPosition" x="1351" y="1273"><tspan fill="rgb(0,0,0)" stroke="none">1,600</tspan></tspan></tspan></text>
 <text class="TextShape"><tspan class="TextParagraph" font-family="Arial, sans-serif" font-size="353px" font-weight="400"><tspan class="TextPosition" x="1351" y="522"><tspan fill="rgb(0,0,0)" stroke="none">1,800</tspan></tspan></tspan></text>
 <text class="TextShape"><tspan class="TextParagraph" font-family="Liberation Sans, sans-serif" font-size="353px" font-weight="400"><tspan class="TextPosition" x="3935" y="1550"><tspan fill="rgb(0,0,0)" stroke="none">f(x) = 4,083x</tspan></tspan></tspan><tspan class="TextParagraph" font-family="Liberation Sans, sans-serif" font-size="353px" font-weight="400"><tspan class="TextPosition" x="3935" y="1947"><tspan fill="rgb(0,0,0)" stroke="none">R² = 1,000</tspan></tspan></tspan></text>
 <path fill="rgb(0,69,134)" stroke="none" d="M 12438,4146 L 12438,4243 12341,4243 12341,4259 12438,4259 12438,4357 12455,4357 12455,4259 12552,4259 12552,4243 12455,4243 12455,4146 12438,4146 Z"/>
 <path fill="none" stroke="rgb(0,69,134)" stroke-linejoin="round" d="M 12438,4146 L 12438,4243 12341,4243 12341,4259 12438,4259 12438,4357 12455,4357 12455,4259 12552,4259 12552,4243 12455,4243 12455,4146 12438,4146 Z"/>
 <path fill="none" stroke="rgb(0,69,134)" stroke-linejoin="round" d="M 12047,4748 L 12847,4748"/>
 <text class="TextShape"><tspan class="TextParagraph" font-family="Liberation Sans, sans-serif" font-size="353px" font-weight="400"><tspan class="TextPosition" x="12947" y="4371"><tspan fill="rgb(0,0,0)" stroke="none">T² [s²]</tspan></tspan></tspan></text>
 <text class="TextShape"><tspan class="TextParagraph" font-family="Liberation Sans, sans-serif" font-size="353px" font-weight="400"><tspan class="TextPosition" x="12947" y="4868"><tspan fill="rgb(0,0,0)" stroke="none">Krzywa regresji</tspan></tspan></tspan></text>
 <text class="TextShape"><tspan class="TextParagraph" font-family="Arial, sans-serif" font-size="318px" font-weight="400"><tspan class="TextPosition" x="4897" y="8410"><tspan fill="rgb(0,0,0)" stroke="none">długość wahadła l [m]</tspan></tspan></tspan></text>
 <text class="TextShape" transform="translate(864,6219) rotate(-90) translate(-864,-6219)"><tspan class="TextParagraph" font-family="Arial, sans-serif" font-size="318px" font-weight="400"><tspan class="TextPosition" x="864" y="6219"><tspan fill="rgb(0,0,0)" stroke="none">kwadrat okresu wahania T² [s²]</tspan></tspan></tspan></text>
</svg>